<svg xmlns="http://www.w3.org/2000/svg" xmlns:xlink="http://www.w3.org/1999/xlink" width="1747.296" height="745.606" viewBox="0 0 1747.296 745.606">
  <defs>
    <clipPath id="clip-path">
      <path id="Rectangle_45377" data-name="Rectangle 45377" d="M13.124,0H1734.171A13.125,13.125,0,0,1,1747.3,13.125V732.484a13.123,13.123,0,0,1-13.123,13.123H13.124A13.124,13.124,0,0,1,0,732.482V13.124A13.124,13.124,0,0,1,13.124,0Z" transform="translate(1.382 2.58)" fill="none"/>
    </clipPath>
    <linearGradient id="linear-gradient" x1="0.5" x2="0.5" y2="1" gradientUnits="objectBoundingBox">
      <stop offset="0" stop-color="#022938"/>
      <stop offset="0.5" stop-color="#033e54"/>
      <stop offset="1" stop-color="#022938"/>
    </linearGradient>
  </defs>
  <g id="bg_grid" transform="translate(-1.382 -2.58)" clip-path="url(#clip-path)">
    <rect id="Rectangle_45295" data-name="Rectangle 45295" width="1747.296" height="745.606" transform="translate(1.382 2.58)" fill="url(#linear-gradient)"/>
    <rect id="Rectangle_45296" data-name="Rectangle 45296" width="2.761" height="828.257" transform="translate(0 1.381)" fill="#006384"/>
    <rect id="Rectangle_45297" data-name="Rectangle 45297" width="2.762" height="828.257" transform="translate(40.599 1.381)" fill="#006384"/>
    <rect id="Rectangle_45298" data-name="Rectangle 45298" width="2.759" height="828.257" transform="translate(81.203 1.381)" fill="#006384"/>
    <rect id="Rectangle_45299" data-name="Rectangle 45299" width="2.759" height="828.257" transform="translate(121.802 1.381)" fill="#006384"/>
    <rect id="Rectangle_45300" data-name="Rectangle 45300" width="2.759" height="828.257" transform="translate(162.406 1.381)" fill="#006384"/>
    <rect id="Rectangle_45301" data-name="Rectangle 45301" width="2.759" height="828.257" transform="translate(203.006 1.381)" fill="#006384"/>
    <rect id="Rectangle_45302" data-name="Rectangle 45302" width="2.756" height="828.257" transform="translate(243.605 1.381)" fill="#006384"/>
    <rect id="Rectangle_45303" data-name="Rectangle 45303" width="2.757" height="828.257" transform="translate(284.207 1.381)" fill="#006384"/>
    <rect id="Rectangle_45304" data-name="Rectangle 45304" width="2.764" height="828.257" transform="translate(324.803 1.381)" fill="#006384"/>
    <rect id="Rectangle_45305" data-name="Rectangle 45305" width="2.76" height="828.257" transform="translate(365.407 1.381)" fill="#006384"/>
    <rect id="Rectangle_45306" data-name="Rectangle 45306" width="2.763" height="828.257" transform="translate(406.007 1.381)" fill="#006384"/>
    <rect id="Rectangle_45307" data-name="Rectangle 45307" width="2.763" height="828.257" transform="translate(446.607 1.381)" fill="#006384"/>
    <rect id="Rectangle_45308" data-name="Rectangle 45308" width="2.761" height="828.257" transform="translate(487.21 1.381)" fill="#006384"/>
    <rect id="Rectangle_45309" data-name="Rectangle 45309" width="2.764" height="828.257" transform="translate(527.809 1.381)" fill="#006384"/>
    <rect id="Rectangle_45310" data-name="Rectangle 45310" width="2.762" height="828.257" transform="translate(568.411 1.381)" fill="#006384"/>
    <rect id="Rectangle_45311" data-name="Rectangle 45311" width="2.762" height="828.257" transform="translate(609.014 1.381)" fill="#006384"/>
    <rect id="Rectangle_45312" data-name="Rectangle 45312" width="2.759" height="828.257" transform="translate(649.616 1.381)" fill="#006384"/>
    <rect id="Rectangle_45313" data-name="Rectangle 45313" width="2.761" height="828.257" transform="translate(690.215 1.381)" fill="#006384"/>
    <rect id="Rectangle_45314" data-name="Rectangle 45314" width="2.764" height="828.257" transform="translate(730.814 1.381)" fill="#006384"/>
    <rect id="Rectangle_45315" data-name="Rectangle 45315" width="2.762" height="828.257" transform="translate(771.416 1.381)" fill="#006384"/>
    <rect id="Rectangle_45316" data-name="Rectangle 45316" width="2.756" height="828.257" transform="translate(812.018 1.381)" fill="#006384"/>
    <rect id="Rectangle_45317" data-name="Rectangle 45317" width="2.758" height="828.257" transform="translate(852.619 1.381)" fill="#006384"/>
    <rect id="Rectangle_45318" data-name="Rectangle 45318" width="2.756" height="828.257" transform="translate(893.22 1.381)" fill="#006384"/>
    <rect id="Rectangle_45319" data-name="Rectangle 45319" width="2.764" height="828.257" transform="translate(933.821 1.381)" fill="#006384"/>
    <rect id="Rectangle_45320" data-name="Rectangle 45320" width="2.766" height="828.257" transform="translate(974.419 1.381)" fill="#006384"/>
    <rect id="Rectangle_45321" data-name="Rectangle 45321" width="2.761" height="828.257" transform="translate(1015.022 1.381)" fill="#006384"/>
    <rect id="Rectangle_45322" data-name="Rectangle 45322" width="2.759" height="828.257" transform="translate(1055.622 1.381)" fill="#006384"/>
    <rect id="Rectangle_45323" data-name="Rectangle 45323" width="2.766" height="828.257" transform="translate(1096.217 1.381)" fill="#006384"/>
    <rect id="Rectangle_45324" data-name="Rectangle 45324" width="2.757" height="828.257" transform="translate(1136.825 1.381)" fill="#006384"/>
    <rect id="Rectangle_45325" data-name="Rectangle 45325" width="2.758" height="828.257" transform="translate(1177.427 1.381)" fill="#006384"/>
    <rect id="Rectangle_45326" data-name="Rectangle 45326" width="2.758" height="828.257" transform="translate(1218.028 1.381)" fill="#006384"/>
    <rect id="Rectangle_45327" data-name="Rectangle 45327" width="2.762" height="828.257" transform="translate(1258.628 1.381)" fill="#006384"/>
    <rect id="Rectangle_45328" data-name="Rectangle 45328" width="2.764" height="828.257" transform="translate(1299.223 1.381)" fill="#006384"/>
    <rect id="Rectangle_45329" data-name="Rectangle 45329" width="2.763" height="828.257" transform="translate(1339.825 1.381)" fill="#006384"/>
    <rect id="Rectangle_45330" data-name="Rectangle 45330" width="2.762" height="828.257" transform="translate(1380.426 1.381)" fill="#006384"/>
    <rect id="Rectangle_45331" data-name="Rectangle 45331" width="1380.428" height="2.759" transform="translate(1.382 704.021)" fill="#006384"/>
    <rect id="Rectangle_45380" data-name="Rectangle 45380" width="1380.428" height="2.759" transform="translate(1.382 745.428)" fill="#006384"/>
    <rect id="Rectangle_45332" data-name="Rectangle 45332" width="1380.428" height="2.759" transform="translate(1.382 662.605)" fill="#006384"/>
    <rect id="Rectangle_45333" data-name="Rectangle 45333" width="1380.428" height="2.761" transform="translate(1.382 621.191)" fill="#006384"/>
    <rect id="Rectangle_45334" data-name="Rectangle 45334" width="1380.428" height="2.759" transform="translate(1.382 579.779)" fill="#006384"/>
    <rect id="Rectangle_45335" data-name="Rectangle 45335" width="1380.428" height="2.758" transform="translate(1.382 538.368)" fill="#006384"/>
    <rect id="Rectangle_45336" data-name="Rectangle 45336" width="1380.428" height="2.763" transform="translate(1.382 496.952)" fill="#006384"/>
    <rect id="Rectangle_45337" data-name="Rectangle 45337" width="1380.428" height="2.763" transform="translate(1.382 455.54)" fill="#006384"/>
    <rect id="Rectangle_45338" data-name="Rectangle 45338" width="1380.428" height="2.758" transform="translate(1.382 414.13)" fill="#006384"/>
    <rect id="Rectangle_45339" data-name="Rectangle 45339" width="1380.428" height="2.763" transform="translate(1.382 372.713)" fill="#006384"/>
    <rect id="Rectangle_45340" data-name="Rectangle 45340" width="1380.428" height="2.764" transform="translate(1.382 331.301)" fill="#006384"/>
    <rect id="Rectangle_45341" data-name="Rectangle 45341" width="1380.428" height="2.763" transform="translate(1.382 289.888)" fill="#006384"/>
    <rect id="Rectangle_45342" data-name="Rectangle 45342" width="1380.428" height="2.762" transform="translate(1.382 248.478)" fill="#006384"/>
    <rect id="Rectangle_45343" data-name="Rectangle 45343" width="1380.428" height="2.761" transform="translate(1.382 207.065)" fill="#006384"/>
    <rect id="Rectangle_45344" data-name="Rectangle 45344" width="1380.428" height="2.761" transform="translate(1.382 165.652)" fill="#006384"/>
    <rect id="Rectangle_45345" data-name="Rectangle 45345" width="1380.428" height="2.761" transform="translate(1.382 124.238)" fill="#006384"/>
    <rect id="Rectangle_45346" data-name="Rectangle 45346" width="1380.428" height="2.76" transform="translate(1.382 82.826)" fill="#006384"/>
    <rect id="Rectangle_45347" data-name="Rectangle 45347" width="1380.428" height="2.761" transform="translate(1.382 41.412)" fill="#006384"/>
    <rect id="Rectangle_45348" data-name="Rectangle 45348" width="1380.428" height="2.761" transform="translate(1.382 0)" fill="#006384"/>
    <rect id="Rectangle_45349" data-name="Rectangle 45349" width="2.762" height="828.257" transform="translate(1380.203 1.381)" fill="#006384"/>
    <rect id="Rectangle_45350" data-name="Rectangle 45350" width="2.762" height="828.257" transform="translate(1420.802 1.381)" fill="#006384"/>
    <rect id="Rectangle_45351" data-name="Rectangle 45351" width="2.759" height="828.257" transform="translate(1461.407 1.381)" fill="#006384"/>
    <rect id="Rectangle_45352" data-name="Rectangle 45352" width="2.759" height="828.257" transform="translate(1502.006 1.381)" fill="#006384"/>
    <rect id="Rectangle_45353" data-name="Rectangle 45353" width="2.759" height="828.257" transform="translate(1542.609 1.381)" fill="#006384"/>
    <rect id="Rectangle_45354" data-name="Rectangle 45354" width="2.76" height="828.257" transform="translate(1583.209 1.381)" fill="#006384"/>
    <rect id="Rectangle_45355" data-name="Rectangle 45355" width="2.756" height="828.257" transform="translate(1623.808 1.381)" fill="#006384"/>
    <rect id="Rectangle_45356" data-name="Rectangle 45356" width="2.758" height="828.257" transform="translate(1664.41 1.381)" fill="#006384"/>
    <rect id="Rectangle_45357" data-name="Rectangle 45357" width="2.765" height="828.257" transform="translate(1705.006 1.381)" fill="#006384"/>
    <rect id="Rectangle_45358" data-name="Rectangle 45358" width="2.76" height="828.257" transform="translate(1745.61 1.381)" fill="#006384"/>
    <rect id="Rectangle_45359" data-name="Rectangle 45359" width="1380.429" height="2.759" transform="translate(1381.585 704.021)" fill="#006384"/>
    <rect id="Rectangle_45360" data-name="Rectangle 45360" width="1380.429" height="2.759" transform="translate(1381.585 662.605)" fill="#006384"/>
    <rect id="Rectangle_45361" data-name="Rectangle 45361" width="1380.429" height="2.761" transform="translate(1381.585 621.191)" fill="#006384"/>
    <rect id="Rectangle_45362" data-name="Rectangle 45362" width="1380.429" height="2.759" transform="translate(1381.585 579.779)" fill="#006384"/>
    <rect id="Rectangle_45363" data-name="Rectangle 45363" width="1380.429" height="2.758" transform="translate(1381.585 538.368)" fill="#006384"/>
    <rect id="Rectangle_45364" data-name="Rectangle 45364" width="1380.429" height="2.763" transform="translate(1381.585 496.952)" fill="#006384"/>
    <rect id="Rectangle_45365" data-name="Rectangle 45365" width="1380.429" height="2.763" transform="translate(1381.585 455.54)" fill="#006384"/>
    <rect id="Rectangle_45366" data-name="Rectangle 45366" width="1380.429" height="2.758" transform="translate(1381.585 414.13)" fill="#006384"/>
    <rect id="Rectangle_45367" data-name="Rectangle 45367" width="1380.429" height="2.763" transform="translate(1381.585 372.713)" fill="#006384"/>
    <rect id="Rectangle_45368" data-name="Rectangle 45368" width="1380.429" height="2.764" transform="translate(1381.585 331.301)" fill="#006384"/>
    <rect id="Rectangle_45369" data-name="Rectangle 45369" width="1380.429" height="2.763" transform="translate(1381.585 289.888)" fill="#006384"/>
    <rect id="Rectangle_45370" data-name="Rectangle 45370" width="1380.429" height="2.762" transform="translate(1381.585 248.478)" fill="#006384"/>
    <rect id="Rectangle_45371" data-name="Rectangle 45371" width="1380.429" height="2.761" transform="translate(1381.585 207.065)" fill="#006384"/>
    <rect id="Rectangle_45372" data-name="Rectangle 45372" width="1380.429" height="2.761" transform="translate(1381.585 165.652)" fill="#006384"/>
    <rect id="Rectangle_45373" data-name="Rectangle 45373" width="1380.429" height="2.761" transform="translate(1381.585 124.238)" fill="#006384"/>
    <rect id="Rectangle_45374" data-name="Rectangle 45374" width="1380.429" height="2.76" transform="translate(1381.585 82.826)" fill="#006384"/>
    <rect id="Rectangle_45375" data-name="Rectangle 45375" width="1380.429" height="2.761" transform="translate(1381.585 41.412)" fill="#006384"/>
    <rect id="Rectangle_45376" data-name="Rectangle 45376" width="1380.429" height="2.761" transform="translate(1381.585 0)" fill="#006384"/>
  </g>
</svg>
