<svg xmlns="http://www.w3.org/2000/svg" width="143.897" height="143.897" viewBox="0 0 143.897 143.897">
  <g id="btn_camera" transform="translate(7482.874 9257.999)">
    <path id="Path_29729" data-name="Path 29729" d="M867.126,71.948a71.949,71.949,0,1,1,71.948,71.95,71.946,71.946,0,0,1-71.948-71.95" transform="translate(-8350 -9258)" fill="#7d7d7d"/>
    <path id="Path_29730" data-name="Path 29730" d="M968.562,28.68H908.513a13.306,13.306,0,0,0-13.285,13.285v60.047A13.3,13.3,0,0,0,908.513,115.3h60.049a13.3,13.3,0,0,0,13.282-13.286V41.965A13.3,13.3,0,0,0,968.562,28.68m-70.7,31.5h24.316a26.058,26.058,0,0,0,0,23.624H897.858ZM969.43,71.988A23.73,23.73,0,1,1,945.7,48.259,23.763,23.763,0,0,1,969.43,71.988m9.787,30.024a10.672,10.672,0,0,1-10.655,10.663H908.513a10.672,10.672,0,0,1-10.655-10.663V86.423h25.818a26.305,26.305,0,0,0,44.047,0h11.494Zm0-18.212h-9.99a26.131,26.131,0,0,0,0-23.624h9.99Zm0-26.244H967.723a26.3,26.3,0,0,0-44.047,0H897.858V41.965a10.667,10.667,0,0,1,10.655-10.657h60.049a10.666,10.666,0,0,1,10.655,10.657Z" transform="translate(-8350 -9258)" fill="#fff"/>
    <path id="Path_29731" data-name="Path 29731" d="M968.562,28.68H908.513a13.306,13.306,0,0,0-13.285,13.285v60.047A13.3,13.3,0,0,0,908.513,115.3h60.049a13.3,13.3,0,0,0,13.282-13.286V41.965A13.3,13.3,0,0,0,968.562,28.68Zm-70.7,31.5h24.316a26.058,26.058,0,0,0,0,23.624H897.858ZM969.43,71.988A23.73,23.73,0,1,1,945.7,48.259,23.763,23.763,0,0,1,969.43,71.988Zm9.787,30.024a10.672,10.672,0,0,1-10.655,10.663H908.513a10.672,10.672,0,0,1-10.655-10.663V86.423h25.818a26.305,26.305,0,0,0,44.047,0h11.494Zm0-18.212h-9.99a26.131,26.131,0,0,0,0-23.624h9.99Zm0-26.244H967.723a26.3,26.3,0,0,0-44.047,0H897.858V41.965a10.667,10.667,0,0,1,10.655-10.657h60.049a10.666,10.666,0,0,1,10.655,10.657Z" transform="translate(-8350 -9258)" fill="none" stroke="#fff" stroke-miterlimit="10" stroke-width="0.846"/>
    <path id="Path_29732" data-name="Path 29732" d="M925.412,37.533H906.381a1.31,1.31,0,0,0-1.309,1.315v8.1a1.308,1.308,0,0,0,1.309,1.31h19.031a1.312,1.312,0,0,0,1.314-1.31v-8.1a1.313,1.313,0,0,0-1.314-1.315m-1.31,8.1H907.7V40.161h16.4Z" transform="translate(-8350 -9258)" fill="#fff"/>
    <path id="Path_29733" data-name="Path 29733" d="M925.412,37.533H906.381a1.31,1.31,0,0,0-1.309,1.315v8.1a1.308,1.308,0,0,0,1.309,1.31h19.031a1.312,1.312,0,0,0,1.314-1.31v-8.1A1.313,1.313,0,0,0,925.412,37.533Zm-1.31,8.1H907.7V40.161h16.4Z" transform="translate(-8350 -9258)" fill="none" stroke="#fff" stroke-miterlimit="10" stroke-width="0.846"/>
    <path id="Path_29734" data-name="Path 29734" d="M967.919,37.533a5.363,5.363,0,1,0,5.36,5.361,5.364,5.364,0,0,0-5.36-5.361m0,8.1a2.737,2.737,0,1,1,2.737-2.741,2.743,2.743,0,0,1-2.737,2.741" transform="translate(-8350 -9258)" fill="#fff"/>
    <path id="Path_29735" data-name="Path 29735" d="M967.919,37.533a5.363,5.363,0,1,0,5.36,5.361A5.364,5.364,0,0,0,967.919,37.533Zm0,8.1a2.737,2.737,0,1,1,2.737-2.741A2.743,2.743,0,0,1,967.919,45.635Z" transform="translate(-8350 -9258)" fill="none" stroke="#fff" stroke-miterlimit="10" stroke-width="0.846"/>
    <path id="Path_29736" data-name="Path 29736" d="M945.7,55.13a16.858,16.858,0,1,0,16.858,16.858A16.88,16.88,0,0,0,945.7,55.13m0,31.088a14.229,14.229,0,1,1,14.229-14.23A14.245,14.245,0,0,1,945.7,86.218" transform="translate(-8350 -9258)" fill="#fff"/>
    <path id="Path_29737" data-name="Path 29737" d="M945.7,55.13a16.858,16.858,0,1,0,16.858,16.858A16.88,16.88,0,0,0,945.7,55.13Zm0,31.088a14.229,14.229,0,1,1,14.229-14.23A14.245,14.245,0,0,1,945.7,86.218Z" transform="translate(-8350 -9258)" fill="none" stroke="#fff" stroke-miterlimit="10" stroke-width="0.846"/>
  </g>
</svg>
