<svg id="logo_notional_science" xmlns="http://www.w3.org/2000/svg" xmlns:xlink="http://www.w3.org/1999/xlink" width="374.093" height="51.6" viewBox="0 0 374.093 51.6">
  <defs>
    <clipPath id="clip-path">
      <rect id="Rectangle_45379" data-name="Rectangle 45379" width="374.093" height="51.6" transform="translate(0 0)" fill="none"/>
    </clipPath>
  </defs>
  <rect id="Rectangle_45378" data-name="Rectangle 45378" width="58.969" height="51.6" transform="translate(0 0)" fill="#fff"/>
  <path id="Path_29721" data-name="Path 29721" d="M1.789,1.788H29.271L1.789,49.813Zm55.4,0H29.663L57.187,49.6Z" fill="#002f7c" fill-rule="evenodd"/>
  <g id="Group_59326" data-name="Group 59326">
    <g id="Group_59325" data-name="Group 59325" clip-path="url(#clip-path)">
      <path id="Path_29722" data-name="Path 29722" d="M1.788,49.814h25.27c-2.92-.095-5.938-1.441-9.059-3.848a14.172,14.172,0,0,1-5.356-10.8c-.03-3.976,1.838-7.562,5.227-13.456Z" fill="#e4004f" fill-rule="evenodd"/>
      <path id="Path_29723" data-name="Path 29723" d="M29.915,20.944a15.825,15.825,0,0,1,15.52,11.218,12.068,12.068,0,0,1,.244,4.715,12.828,12.828,0,0,1-2.576,6.1,14.655,14.655,0,0,1-3.838,3.505,15.692,15.692,0,0,1-3.373,1.68,7.263,7.263,0,0,0,3-6.837c-.518-3.691-3.764-6.783-8.979-6.827-4.092-.034-7.572-3.218-7.62-6.7,0-3.736,3.9-6.86,7.62-6.86" fill="#e4004f" fill-rule="evenodd"/>
      <path id="Path_29724" data-name="Path 29724" d="M83.728,21.906V13.523c0-.226-.121-.333-.37-.333H73.112c-.234,0-.338.107-.338.333v8.383c0,.223.1.324.338.359H83.358c.221,0,.338-.116.37-.359m-2.783-6.35a.116.116,0,0,1,.128.12v4.075a.131.131,0,0,1-.128.133H75.527c-.1-.009-.135-.064-.108-.133V15.676c-.027-.069.008-.12.108-.12ZM71.14,32.581v1.441H68.222V4.384c.019-.655.335-.979.965-.979H96.772c.676.02,1,.36,1,.979V34.022h-2.9V32.581ZM89.374,8.362a22.48,22.48,0,0,0-.834-2.315H86.9c.049.75.118,1.514.209,2.315ZM94.44,6.047c.278,0,.434.133.434.4V29.93H71.14V6.444c-.032-.264.111-.4.392-.4H84.3a20.816,20.816,0,0,0,.16,2.315H72.7V11.02H84.757a76.488,76.488,0,0,0,2.28,11.354c-.672.959-1.475,2.015-2.446,3.175l-.512-2.311a65.426,65.426,0,0,1-11.705,1.7l.566,2.755a58.042,58.042,0,0,0,11.088-1.554c-.623.645-1.268,1.253-1.9,1.885l2.234,1.7a34.009,34.009,0,0,0,3.646-4.386,18.963,18.963,0,0,0,1.475,3.095A2.945,2.945,0,0,0,91.4,29.7a1.891,1.891,0,0,0,1.872-1.037,17.078,17.078,0,0,0,.931-5.959l-2.571-.666a22.518,22.518,0,0,1,0,3.575c-.068.421-.2.658-.369.7-.094.018-.3-.362-.6-1.139-.291-.736-.6-1.557-.916-2.45a.637.637,0,0,1,.179-.258,34.948,34.948,0,0,0,3.612-9.186l-2.571-.7a37.555,37.555,0,0,1-2.185,6.641c-.423-1.748-.873-4.5-1.374-8.209h6.367V8.362H92.19c-.268-.809-.514-1.589-.769-2.315Zm21.4.584h-13.4v2.91h29.646V6.631h-13.2V2.547h-3.042Zm-9.909,5.752a93.364,93.364,0,0,1,3.679,15.844l2.981-.432a136.989,136.989,0,0,0-3.715-16.047Zm-4.3,17.676h18.857a125.017,125.017,0,0,0,4.321-18.471l2.949.728A177.123,177.123,0,0,1,123.6,30.059h9.275v2.928H101.629Zm42.9-11.008c1.264,1.7,2.4,3.287,3.342,4.761l2.283-1.779a90.084,90.084,0,0,0-5.625-7.1v-.412h4.824V11.588h-4.824V6.428c1.68-.293,3.227-.636,4.649-1.018l-.5-2.863a66.625,66.625,0,0,1-12.289,1.671l.341,2.9c1.694-.091,3.319-.189,4.885-.324v4.791h-5.573v2.931h5.072a33.3,33.3,0,0,1-5.6,10.4l2.752,1.074a36.362,36.362,0,0,0,3.349-5.948V34.186h2.914ZM151.7,6.115a53.977,53.977,0,0,1,6.055,6.543l2.285-1.788a85,85,0,0,0-6.213-6.7Zm-1.463,8.315,2.135-1.938c2.795,2.8,4.714,4.865,5.783,6.151l-2.273,1.782a48.994,48.994,0,0,0-5.645-5.995m10.934,11.25-12.854,2.179-.712-2.835,13.566-2.32V2.547h2.919V22.2l2.884-.494.465,2.862-3.349.607v8.869h-2.919Zm35.49-11.814h-7.693l1.387-1.574c-.541-.468-1.142-.944-1.788-1.4.477-.346.967-.693,1.5-1.078L188.831,8.2l1.34-1.935c-.534-.365-1.113-.713-1.719-1.046.483-.4.979-.824,1.514-1.263l-1.6-1.752c-.693.636-1.392,1.222-2.08,1.77-1.363-.74-2.312-1.269-2.893-1.57L182.206,4.45a16.476,16.476,0,0,1,1.742.9,20.789,20.789,0,0,1-2.812,1.1L182.3,8.6c.472-.155.988-.332,1.531-.531l-1.166,1.606c.274.152.76.467,1.447.939a23.841,23.841,0,0,1-2.915.845l1,2.242a13.644,13.644,0,0,0,4.19-1.545c.754.556,1.482,1.129,2.167,1.709H175.071V12.625h4.95V10.243h-4.95V9.006h4.823V6.631h-4.823V5.584c-.028-.148.007-.246.106-.268a26.226,26.226,0,0,0,6.024-.638L180.171,2.2a29.916,29.916,0,0,1-7.008.679c-.5-.024-.738.188-.738.624v10.36h-1.572a.443.443,0,0,0-.508.5v6.763h2.779V16.778c0-.157.094-.25.27-.269h25.077c.227,0,.346.124.346.4a22.422,22.422,0,0,1-.847,3.956l2.654.8a26.133,26.133,0,0,0,1.319-6.6l-2.4-1.2h-.234V3.482c0-.4-.215-.6-.654-.6H191.81V5.255h4.509c.244,0,.338.1.338.3v1.08h-5.018V9.006h5.018v1.106h-5.018v2.38h5.018ZM184.205,7.9c1.212-.63,1.95-1.024,2.208-1.2a19.781,19.781,0,0,1,2.15,1.346c-.685.472-1.379.947-2.07,1.39C185.465,8.7,184.7,8.176,184.205,7.9m2.472,19.652H171.819V24.778h13.4a17.263,17.263,0,0,0-1.715-2.136h1.606l4.767-2.118H177.546V17.878h15.568l2.074,3.015-7.131,3.176a7.181,7.181,0,0,0,.442.709h11.607v2.773H189.775c.073.268.163.56.22.837.305,2.121-.168,3.723-1.4,4.791a5.865,5.865,0,0,1-3.842,1.241A13.8,13.8,0,0,1,179.5,33l.489-2.834a9.4,9.4,0,0,0,4.995,1.477,2.508,2.508,0,0,0,1.912-1.278,4.229,4.229,0,0,0-.215-2.818m31.955,1.91H204.507v3.047h31.232V29.461H221.811V7.328H234.28V4.278H205.972v3.05h12.66ZM259.076,6.2V7.4h2.659V6.2h8.174V3.541h-8.174V2.4h-2.659V3.541h-9.132V2.4h-2.658V3.541h-8.365V6.2h8.365V7.4h2.658V6.2ZM248.832,14.3v2.244c0,.607.326.917.976.962h3.206a2.107,2.107,0,0,0,1.271-.4c.278-.2.516-1.048.708-2.552l-.763-.258V12.057h-6.02V10.94h4.945V8.963H248.21V7.889h-2.658V8.963h-5.285V10.94h5.285v1.117h-6.76V14.3h4.072a6.14,6.14,0,0,1-3.968,1.263l.77,2.213c2.614-.27,4.356-1.129,5.269-2.574.123-.273.248-.577.385-.9Zm4.161.7c-.082.352-.159.536-.238.536h-1.348c-.411-.028-.617-.245-.582-.633v-.6h2.254a4.9,4.9,0,0,0-.086.7m-7.566,6.518V20.172h-5.3V18.213h5.3V16.064h2.636v2.149h4.684v1.959h-4.684v1.184l5.552-.36.137,2.374-14.521.893-.347-2.337Zm14.3-2.027a12.2,12.2,0,0,1-3.186,4l-1.922-1.5a10.049,10.049,0,0,0,3.225-4.115c-1.188-1.009-1.969-1.647-2.381-1.915l1.584-1.74c.348.3.88.722,1.568,1.268.047-.259.1-.529.17-.8a12.639,12.639,0,0,0,.229-2.2h-3.139v-2.38h3.2V8.162h2.4v1.95h3.839a.777.777,0,0,1,.836.865v9.118a1.586,1.586,0,0,0,.27.8,1.1,1.1,0,0,0,.662.323h.205a.708.708,0,0,0,.539-.2,1.018,1.018,0,0,0,.226-.689V17.806l2.379.421a17.027,17.027,0,0,1-.339,3.481,2.568,2.568,0,0,1-.959,1.431,3.124,3.124,0,0,1-1.674.468h-1.152a4.388,4.388,0,0,1-1.093-.26,2.937,2.937,0,0,1-1.447-2.527V12.963c0-.329-.109-.471-.324-.471h-2.05a25.751,25.751,0,0,1-.8,4.68c1.047.91,1.969,1.787,2.773,2.612L261.687,21.4c-.605-.646-1.276-1.285-1.961-1.908m-14.114,6.727h18.256V24.244H245.612Zm19.721,6.859a20.527,20.527,0,0,1,1.619,1.343l1.778-1.934c-1.042-.888-2.227-1.833-3.621-2.854h4.25V27.253h-30.3v2.379h7.968c-.465.692-.945,1.4-1.445,2.1l-5.629.247c.221.813.42,1.605.578,2.341ZM248.6,31.608c.462-.739.867-1.4,1.207-1.976h10.776c.365.22.995.649,1.915,1.307Zm26.9-19.195V34.04h2.773V12.413h2.481V9.639h-2.481V2.4H275.5V9.639h-2.819v2.774ZM301.813,7.2c.194.412.389.846.567,1.31l2.437-.908a44.285,44.285,0,0,0-2.5-5.138L299.94,3.583c.088.146.292.519.6,1.1h-7.063V2.268H290.83v2.41h-9.587V7.2h9.587V9.041h-8.375a.79.79,0,0,0-.874.862V21.518h2.653V19.171h6.6V21.6h2.644V19.171h7.007v2.347h2.637V9.9c0-.545-.3-.837-.9-.862h-8.74V7.2ZM290.83,16.816h-6.6V15.288h6.6Zm2.644-1.529h7.008v1.528h-7.008Zm-2.644-2.37h-6.6v-1.14q0-.332.359-.369h6.237Zm2.644-1.509h6.6c.268,0,.412.124.412.369v1.14h-7.007Zm3.713,14.2H280.048V22.978h17.139V20.893h2.789v2.085H304.6v2.631h-4.619V30.9a3.28,3.28,0,0,1-1.483,2.814c-1.136.733-3.285.681-6.443-.2l.049-2.864c1.079.321,1.849.526,2.315.616a6.443,6.443,0,0,0,1.5.229,1.173,1.173,0,0,0,.977-.392,1.21,1.21,0,0,0,.3-.9Zm-11.825,2.547a24.682,24.682,0,0,1,2.92,4.4l2.406-1.285c-.872-1.482-1.853-3.018-2.947-4.556Zm27.822-6.731c-1.585.7-3.654,1.492-6.154,2.387l1.578,2.65c1.565-.63,3.082-1.265,4.576-1.921v9.645h2.932V23.17a34.934,34.934,0,0,0,4.3-2.454l-1.671-2.378c-.752.505-1.627,1.05-2.631,1.648v-8.31h2.933V8.765h-2.933V2.4h-2.932V8.765h-1.99c.074-1.42.133-2.546.156-3.386V3.6h-2.77V5.379a40.159,40.159,0,0,1-1.645,11.926l2.847.413a47.9,47.9,0,0,0,1.141-6.042h2.261ZM330.966,9.413H328.94c-.171,1.408-.343,2.744-.57,4.022q-1.557,6.924-8.388,14l-2.5-1.57a35.415,35.415,0,0,0,6.79-8.884,24.2,24.2,0,0,0,1.812-7.564h-2.438a31.172,31.172,0,0,1-3.354,7.166l-2.81-1.1A29.442,29.442,0,0,0,322.265,2.51l2.879.395c-.248,1.277-.481,2.465-.689,3.549h13.177a1.462,1.462,0,0,1,.57.129c.34.217.506.728.506,1.556-.02,5.023-.086,9.481-.166,13.357-.207,6.483-1.365,10.447-3.516,11.933-1.328.9-3.828.848-7.537-.178l-.115-3.419c3.164,1.078,5.148,1.311,5.976.7a5.563,5.563,0,0,0,1.577-2.6,28.575,28.575,0,0,0,.738-6.866c.223-7.273.223-11.085,0-11.409a.41.41,0,0,0-.369-.242h-1.4a38.323,38.323,0,0,1-3.081,13.825,26.684,26.684,0,0,1-8.474,9.881l-2.311-2.133q10.543-6.168,10.939-21.573m30.981-4.535h-6.455a.446.446,0,0,0-.509.5v6.108h2.645V7.8c0-.148.092-.248.275-.268h12.02c.226,0,.334.123.334.4a16.688,16.688,0,0,1-.764,2.939l2.51.842a26.092,26.092,0,0,0,1.392-5.618l-2.41-1.216h-6.118V2.668h-2.92Zm10.176,27.741a.887.887,0,0,1-.995,1H357.972c-.615,0-.916-.311-.916-.943V12.365a.7.7,0,0,1,.777-.777H370.29c.536.024.794.273.794.777v7.76a.707.707,0,0,1-.794.8H359.843V23.37h11.345c.624,0,.935.3.935.893Zm-3.31-6.6h-8.97v4.416c0,.231.1.343.283.343h8.687a.3.3,0,0,0,.336-.343V26.319c0-.2-.114-.3-.336-.3m-8.97-11.42v3.676H367.9a.349.349,0,0,0,.4-.4V14.6c0-.251-.125-.375-.4-.375h-7.7a.335.335,0,0,0-.353.375m-7.1,17.621A98.974,98.974,0,0,1,342.192,34.1l-.7-2.851c.533-.076,1.112-.139,1.7-.208V11.676a.707.707,0,0,1,.769-.773h3.394V8.176h2.638V10.9H353.2c.532.032.808.287.808.773V24.37a.735.735,0,0,1-.838.838h-7.336V30.6c.442-.088,2.394-.459,5.836-1.136-.594-1.271-.951-2.086-1.112-2.447l2.475-.916c1.59,3.832,2.512,6.174,2.786,7.049l-2.518.74q-.271-.846-.563-1.668m-1.377-12.9h-5.527V22.57h5.1a.383.383,0,0,0,.431-.431Zm-5.527-2.635h5.527v-2.49a.593.593,0,0,0-.678-.625h-4.21a.556.556,0,0,0-.639.625Zm3.205-11.13a35.963,35.963,0,0,0,3.667,3.079l2.011-2.176a37.658,37.658,0,0,1-4.381-2.948c.07-.152.157-.321.222-.5l-2.636-.2c-1.077,1.769-3.313,3.579-6.734,5.436l2.408,1.834a25.965,25.965,0,0,0,5.443-4.52" fill="#595757" fill-rule="evenodd"/>
      <path id="Path_29725" data-name="Path 29725" d="M73.931,40.55h1.76v9.18H73.8l-3.687-6.554h-.034V49.73H68.343V40.55h1.975l3.58,6.389h.033Zm4.857,9.18h-2l3.246-9.18H82.2l3.2,9.18H83.323l-.571-1.885H79.431Zm1.145-3.467h2.3l-1.124-3.642h-.036Zm9.376,3.467V42.171h2.722V40.55H84.689v1.621h2.73V49.73Zm5.584,0H93V40.55h1.893Zm1.376-4.587a4.969,4.969,0,0,1,.744-2.992,4.269,4.269,0,0,1,1.645-1.419,4.213,4.213,0,0,1,1.1-.334,4.378,4.378,0,0,1,1.7,0,3.765,3.765,0,0,1,1.084.334,4.153,4.153,0,0,1,1.66,1.419,5.052,5.052,0,0,1,.756,3,5,5,0,0,1-.756,3,4.485,4.485,0,0,1-1.66,1.446,6.4,6.4,0,0,1-1.084.3,6.079,6.079,0,0,1-.841.077,6.162,6.162,0,0,1-.856-.077,7.581,7.581,0,0,1-1.1-.3,4.625,4.625,0,0,1-1.645-1.446,4.935,4.935,0,0,1-.744-3Zm1.885,0a3.531,3.531,0,0,0,.542,2.206,2.4,2.4,0,0,0,1.174.908,1.171,1.171,0,0,0,.37.08,1.75,1.75,0,0,0,.375.032,1.524,1.524,0,0,0,.351-.032,1.155,1.155,0,0,0,.375-.08,2.527,2.527,0,0,0,1.185-.908,3.559,3.559,0,0,0,.532-2.194,3.521,3.521,0,0,0-.532-2.182,2.407,2.407,0,0,0-1.185-.914,2.56,2.56,0,0,0-.375-.088,2.379,2.379,0,0,0-.351-.028,2.381,2.381,0,0,0-.745.116,2.294,2.294,0,0,0-1.174.914,3.478,3.478,0,0,0-.542,2.182Zm13.8-4.593h1.781v9.18h-1.888l-3.69-6.554h-.03V49.73h-1.747V40.55h1.975l3.589,6.389h.01Zm4.885,9.18h-2l3.219-9.18h2.185l3.2,9.18h-2.065l-.573-1.885h-3.346Zm1.138-3.467h2.3l-1.125-3.642h-.042Zm8.544,1.8h4.5V49.73h-6.393V40.55h1.9Zm9.55-1.155h1.808a1.619,1.619,0,0,0,.025.28A1.05,1.05,0,0,0,138,47.5a1.693,1.693,0,0,0,.558.629,2.188,2.188,0,0,0,1.238.277h.089a.376.376,0,0,0,.173-.028,2.815,2.815,0,0,0,1.125-.265.939.939,0,0,0,.5-.9.758.758,0,0,0-.4-.717,5.112,5.112,0,0,0-1.05-.374.655.655,0,0,1-.094-.03.286.286,0,0,1-.086-.016l-.975-.248-.013.023-.03-.023a7.841,7.841,0,0,1-1.945-.717,2,2,0,0,1-.877-1.969,3.046,3.046,0,0,1,.031-.5,4.8,4.8,0,0,1,.159-.566,2.949,2.949,0,0,1,1-1.2,3.8,3.8,0,0,1,2.273-.559,3.62,3.62,0,0,1,2.274.6,3,3,0,0,1,1.045,1.3,4.989,4.989,0,0,1,.165.556,3.3,3.3,0,0,1,.05.514l-1.816-.021c0-.066-.028-.153-.038-.252a.944.944,0,0,0-.119-.329,1.352,1.352,0,0,0-.537-.537,2.172,2.172,0,0,0-1.176-.25,1.339,1.339,0,0,0-.156.007.531.531,0,0,0-.15.026,1.981,1.981,0,0,0-.856.293,1.021,1.021,0,0,0-.2,1.383,1.27,1.27,0,0,0,.446.25.505.505,0,0,0,.164.07.972.972,0,0,0,.164.032l2.193.539a4.972,4.972,0,0,1,1.649.742,1.954,1.954,0,0,1,.739,1.737,2.56,2.56,0,0,1-.613,1.843,3.526,3.526,0,0,1-1.3.879,4,4,0,0,1-.958.228,5.255,5.255,0,0,1-.7.049,4.529,4.529,0,0,1-2.584-.593,3.22,3.22,0,0,1-1.1-1.333,2.849,2.849,0,0,1-.143-.6,2.662,2.662,0,0,1-.051-.534Zm16.509-3.363H150.7c-.032-.065-.04-.157-.086-.28a2.288,2.288,0,0,0-.131-.336,2.044,2.044,0,0,0-.583-.646,1.915,1.915,0,0,0-1.191-.3,2.939,2.939,0,0,0-.329.023c-.117.027-.241.042-.37.075a2.449,2.449,0,0,0-1.056.906,3.95,3.95,0,0,0-.489,2.214,4.6,4.6,0,0,0,.515,2.181,1.816,1.816,0,0,0,1.729.953,1.912,1.912,0,0,0,1.308-.459A2.1,2.1,0,0,0,150.7,46.6l1.887-.009a4.386,4.386,0,0,1-1.253,2.444,3.655,3.655,0,0,1-2.662.944,3.892,3.892,0,0,1-2.982-1.222,5.006,5.006,0,0,1-1.161-3.6,4.91,4.91,0,0,1,1.21-3.619,3.987,3.987,0,0,1,2.96-1.225,3.826,3.826,0,0,1,2.462.718,3.869,3.869,0,0,1,1.216,1.588,3.8,3.8,0,0,1,.153.5,2.167,2.167,0,0,1,.057.452Zm3.161,6.181h-1.881V40.55h1.881Zm8.418-7.559h-4.777v1.935h4.4v1.62h-4.4v2.388h4.994V49.73h-6.865V40.55h6.648Zm7.272-1.621h1.756v9.18H171.3l-3.685-6.554h-.025V49.73h-1.756V40.55h1.983l3.6,6.389h.022Zm11.219,3h-1.879a2.768,2.768,0,0,1-.079-.28,1.988,1.988,0,0,0-.148-.336,1.861,1.861,0,0,0-.578-.646,1.9,1.9,0,0,0-1.184-.3,3.057,3.057,0,0,0-.324.023c-.137.027-.254.042-.377.075a2.446,2.446,0,0,0-1.06.906,4,4,0,0,0-.486,2.214,4.487,4.487,0,0,0,.518,2.181,1.834,1.834,0,0,0,1.729.953,1.919,1.919,0,0,0,1.305-.459,2.074,2.074,0,0,0,.684-1.278l1.879-.009a4.285,4.285,0,0,1-1.25,2.444,3.679,3.679,0,0,1-2.671.944,3.85,3.85,0,0,1-2.958-1.222,4.949,4.949,0,0,1-1.162-3.6,4.941,4.941,0,0,1,1.2-3.619,3.993,3.993,0,0,1,2.947-1.225,3.684,3.684,0,0,1,3.69,2.306,2.963,2.963,0,0,1,.152.5,2.1,2.1,0,0,1,.051.452Zm8.086-1.378h-4.779v1.935h4.4v1.62h-4.4v2.388h4.988V49.73H184.1V40.55h6.643Zm7.232,7.559h-1.984l3.225-9.18H201.4l3.18,9.18h-2.059l-.586-1.885h-3.323Zm1.144-3.467h2.305L200.3,42.621h-.029Zm12.18-5.713h1.762v9.18h-1.885l-3.679-6.554h-.038V49.73H205.7V40.55h1.989l3.585,6.389h.02Zm3.569,0h4a3.172,3.172,0,0,1,2.484.921,4.564,4.564,0,0,1,1.053,2.037,5.479,5.479,0,0,1,.105.742,5.775,5.775,0,0,1,.041.7,6.512,6.512,0,0,1-.041.718c-.021.242-.051.495-.1.745A5.439,5.439,0,0,1,221.33,48.7a3.061,3.061,0,0,1-2.554,1.028h-3.913Zm1.857,7.6h1.854a1.554,1.554,0,0,0,1.554-.9,4.589,4.589,0,0,0,.472-1.991v-.182a3.766,3.766,0,0,0-.421-2.1,1.891,1.891,0,0,0-.92-.76,1.468,1.468,0,0,0-.359-.064,2.34,2.34,0,0,0-.352-.019H216.72Zm14.022,1.578h-1.876V42.171H226.14V40.55h7.348v1.621h-2.746Zm10.509-7.559h-4.8v1.935h4.414v1.62h-4.414v2.388h5.011V49.73h-6.857V40.55h6.644Zm9.424,1.378h-1.9c-.015-.065-.04-.157-.077-.28s-.09-.216-.142-.336a2.146,2.146,0,0,0-.58-.646,1.948,1.948,0,0,0-1.195-.3,3.074,3.074,0,0,0-.33.023c-.116.027-.231.042-.366.075a2.362,2.362,0,0,0-1.058.906,4,4,0,0,0-.5,2.214,4.446,4.446,0,0,0,.524,2.181,1.813,1.813,0,0,0,1.725.953,1.923,1.923,0,0,0,1.31-.459,2.124,2.124,0,0,0,.684-1.278l1.9-.009a4.506,4.506,0,0,1-1.262,2.444,3.7,3.7,0,0,1-2.676.944,3.9,3.9,0,0,1-2.976-1.222,5.049,5.049,0,0,1-1.154-3.6,4.911,4.911,0,0,1,1.211-3.619,3.986,3.986,0,0,1,2.951-1.225,3.671,3.671,0,0,1,3.687,2.306,1.842,1.842,0,0,1,.137.5,2.717,2.717,0,0,1,.082.452Zm3.254,2.066V49.73h-1.892V40.55h1.892v3.485h3.529V40.55h1.9v9.18h-1.9V45.615ZM266.7,40.55h1.775v9.18h-1.9l-3.689-6.554h-.029V49.73H261.1V40.55h1.99l3.589,6.389h.014Zm3.184,4.593a5.039,5.039,0,0,1,.749-2.992,4.236,4.236,0,0,1,1.652-1.419,4.187,4.187,0,0,1,1.075-.334,7.146,7.146,0,0,1,.875-.083,6.51,6.51,0,0,1,.841.083,4.092,4.092,0,0,1,1.1.334,4.147,4.147,0,0,1,1.643,1.419,4.922,4.922,0,0,1,.767,3,4.873,4.873,0,0,1-.767,3,4.482,4.482,0,0,1-1.643,1.446,7.256,7.256,0,0,1-1.1.3,6.027,6.027,0,0,1-.841.077,6.6,6.6,0,0,1-.875-.077,7.723,7.723,0,0,1-1.075-.3,4.584,4.584,0,0,1-1.652-1.446,5,5,0,0,1-.749-3Zm1.886,0a3.664,3.664,0,0,0,.535,2.206,2.525,2.525,0,0,0,1.186.908,1.339,1.339,0,0,0,.383.08,1.6,1.6,0,0,0,.361.032,1.569,1.569,0,0,0,.351-.032,1.287,1.287,0,0,0,.379-.08,2.648,2.648,0,0,0,1.19-.908,3.675,3.675,0,0,0,.538-2.194,3.635,3.635,0,0,0-.538-2.182,2.516,2.516,0,0,0-1.19-.914,3.3,3.3,0,0,0-.379-.088,2.277,2.277,0,0,0-.712,0,3.572,3.572,0,0,0-.383.088,2.4,2.4,0,0,0-1.186.914,3.609,3.609,0,0,0-.535,2.182Zm10.195,2.924h4.489V49.73h-6.376V40.55h1.887Zm5.409-2.924a4.9,4.9,0,0,1,.761-2.992,3.995,3.995,0,0,1,2.726-1.753,6.647,6.647,0,0,1,.854-.083,7.271,7.271,0,0,1,.875.083,4.012,4.012,0,0,1,2.724,1.753,5.021,5.021,0,0,1,.743,3,4.97,4.97,0,0,1-.743,3,4.71,4.71,0,0,1-1.638,1.446,8.255,8.255,0,0,1-1.086.3,6.7,6.7,0,0,1-.875.077,6.163,6.163,0,0,1-.854-.077,7.5,7.5,0,0,1-1.091-.3,4.494,4.494,0,0,1-1.635-1.446,4.868,4.868,0,0,1-.761-3Zm1.885,0a3.659,3.659,0,0,0,.544,2.206,2.507,2.507,0,0,0,1.178.908,1.129,1.129,0,0,0,.379.08,1.553,1.553,0,0,0,.355.032,1.811,1.811,0,0,0,.371-.032,1.177,1.177,0,0,0,.366-.08,2.431,2.431,0,0,0,1.177-.908,3.628,3.628,0,0,0,.533-2.194,3.589,3.589,0,0,0-.533-2.182,2.32,2.32,0,0,0-1.177-.914,2.332,2.332,0,0,0-.737-.116,2.421,2.421,0,0,0-.355.028,2.363,2.363,0,0,0-.379.088,2.388,2.388,0,0,0-1.178.914,3.6,3.6,0,0,0-.544,2.182Zm12.56-.361h3.774V49.73h-1.266l-.192-1.148a2.814,2.814,0,0,0-.174.241,2.311,2.311,0,0,1-.218.212,3.423,3.423,0,0,1-.92.663,3.325,3.325,0,0,1-1.5.281,4.019,4.019,0,0,1-2.882-1.194,4.708,4.708,0,0,1-1.283-3.626,5.705,5.705,0,0,1,1.078-3.36,3.88,3.88,0,0,1,3.366-1.484,4.044,4.044,0,0,1,2.472.675,3.6,3.6,0,0,1,1.23,1.47,1.362,1.362,0,0,1,.158.493,1.792,1.792,0,0,1,.1.468l-1.89-.015a.727.727,0,0,0-.089-.29,1.422,1.422,0,0,0-.246-.4,2.169,2.169,0,0,0-.641-.561,1.909,1.909,0,0,0-1.016-.255,2.555,2.555,0,0,0-1.785.764A3.478,3.478,0,0,0,299.1,45.2a3.175,3.175,0,0,0,.777,2.481,2.865,2.865,0,0,0,1.714.685h.13a4.54,4.54,0,0,0,.457-.04,2.288,2.288,0,0,0,1.276-.876,2.9,2.9,0,0,0,.464-1.118h-2.107Zm9.8,4.948h-1.878V46.266l-3.149-5.716h2.237l1.877,3.992,1.787-3.992h2.137l-3.011,5.74Zm17.02,0h-1.744V42.059h-.033l-1.686,7.671h-1.854l-1.649-7.671h-.036V49.73h-1.751V40.55h2.747l1.645,7.246h.017L325.9,40.55h2.732Zm9.054-3.21a3.184,3.184,0,0,1-.995,2.641,4.217,4.217,0,0,1-2.711.818,3.913,3.913,0,0,1-.674-.049,3.6,3.6,0,0,1-.731-.155,3.177,3.177,0,0,1-.781-.332,2.283,2.283,0,0,1-.69-.569,2.168,2.168,0,0,1-.515-.976,5.819,5.819,0,0,1-.189-1.246v-6.1h1.94v5.97a1.856,1.856,0,0,0,.454,1.409,1.668,1.668,0,0,0,1.133.44,1.768,1.768,0,0,0,1.393-.459,1.792,1.792,0,0,0,.429-1.295V40.55h1.937Zm1.39.392h1.806a1.145,1.145,0,0,0,.037.28,1.91,1.91,0,0,0,.09.312,1.742,1.742,0,0,0,.554.629,2.2,2.2,0,0,0,1.245.277h.134a.3.3,0,0,0,.124-.028,2.839,2.839,0,0,0,1.124-.265.919.919,0,0,0,.505-.9.744.744,0,0,0-.411-.717,4.659,4.659,0,0,0-1.052-.374c-.026-.014-.061-.014-.088-.03a.393.393,0,0,1-.1-.016l-.964-.248-.026.023v-.023a7.845,7.845,0,0,1-1.976-.717c-.586-.3-.867-.968-.867-1.969a3.115,3.115,0,0,1,.043-.5,4.506,4.506,0,0,1,.15-.566,2.9,2.9,0,0,1,1-1.2,3.722,3.722,0,0,1,2.259-.559,3.629,3.629,0,0,1,2.277.6,3.143,3.143,0,0,1,1.06,1.3,3.6,3.6,0,0,1,.149.556,2.4,2.4,0,0,1,.057.514l-1.8-.021c-.013-.066-.035-.153-.056-.252a.883.883,0,0,0-.125-.329,1.255,1.255,0,0,0-.511-.537,2.246,2.246,0,0,0-1.176-.25s-.1,0-.157.007a.548.548,0,0,0-.164.026,1.883,1.883,0,0,0-.844.293.866.866,0,0,0-.4.785.879.879,0,0,0,.185.6,1.135,1.135,0,0,0,.461.25.29.29,0,0,0,.145.07,1.241,1.241,0,0,0,.164.032l2.211.539a5.272,5.272,0,0,1,1.643.742,2,2,0,0,1,.709,1.737,2.6,2.6,0,0,1-.575,1.843,3.877,3.877,0,0,1-1.3.879,4.176,4.176,0,0,1-.964.228,5.352,5.352,0,0,1-.7.049,4.448,4.448,0,0,1-2.571-.593,3.133,3.133,0,0,1-1.107-1.333,2.751,2.751,0,0,1-.151-.6,3.59,3.59,0,0,1-.042-.534Zm15.5-4.741H349.8v1.935h4.406v1.62H349.8v2.388h4.994V49.73h-6.86V40.55h6.639Zm9,4.349a3.161,3.161,0,0,1-1.006,2.641,4.182,4.182,0,0,1-2.707.818,3.678,3.678,0,0,1-.662-.049,3.534,3.534,0,0,1-.746-.155,3.024,3.024,0,0,1-.781-.332,2.4,2.4,0,0,1-.684-.569,2.292,2.292,0,0,1-.527-.976,5.655,5.655,0,0,1-.18-1.246v-6.1h1.932v5.97a1.923,1.923,0,0,0,.465,1.409,1.61,1.61,0,0,0,1.137.44,1.82,1.82,0,0,0,1.4-.459,1.877,1.877,0,0,0,.425-1.295V40.55h1.933Zm10.516,3.21h-1.748V42.059h-.031L370.62,49.73h-1.851l-1.647-7.671h-.035V49.73h-1.738V40.55h2.736l1.641,7.246h.027l1.611-7.246h2.729Z" fill="#595757" fill-rule="evenodd"/>
    </g>
  </g>
</svg>
